<svg width="687" height="138" viewBox="0 0 687 138" version="1.1" xmlns="http://www.w3.org/2000/svg" xmlns:xlink="http://www.w3.org/1999/xlink">
<title>Rubka</title>
<desc>Created using Figma</desc>
<g id="Canvas" transform="translate(185 240)">
<clipPath id="clip-0" clip-rule="evenodd">
<path d="M -185 -240L 502 -240L 502 -102L -185 -102L -185 -240Z" fill="#FFFFFF"/>
</clipPath>
<g id="Rubka" clip-path="url(#clip-0)">
<g id="boat-wheel">
<g id="Group">
<g id="Vector">
<use xlink:href="#path0_fill" transform="translate(-185 -239)" fill="#333333"/>
</g>
</g>
</g>
<g id="&#209;&#128;&#209;&#131;&#208;&#177;&#208;&#186;&#208;&#176;">
<use xlink:href="#path1_fill" transform="translate(-3 -261)" fill="#333333"/>
</g>
</g>
</g>
<defs>
<path id="path0_fill" d="M 119.054 94.7666C 117.507 93.1534 115.629 91.8181 114.121 90.9481L 99.6503 82.583C 96.8745 80.9818 95.4579 77.2479 95.9563 74.1393C 96.2583 72.2693 96.4033 70.3842 96.4033 68.4629C 96.4033 66.6019 96.2493 64.7168 95.9412 62.8227C 95.4398 59.7322 96.8745 56.0164 99.6503 54.4122L 114.124 46.0471C 116.9 44.443 119.764 40.8631 120.519 38.0476C 121.274 35.235 119.603 32.3439 116.794 31.5887C 113.985 30.8334 109.455 31.5222 106.676 33.1264L 92.1626 41.5005C 89.3868 43.1047 85.4571 42.4733 83.0226 40.4976C 81.5638 39.3164 80.0112 38.2469 78.35 37.2772C 76.734 36.3347 75.0365 35.525 73.2454 34.8393C 70.3216 33.7245 67.8267 30.622 67.8267 27.4137L 67.8267 11.1759C 67.8267 7.96758 66.1232 3.67778 64.0239 1.59329C 61.9247 -0.491187 58.5629 -0.536501 56.5271 1.4936C 54.4883 3.52371 52.8331 7.76819 52.8331 10.9735L 52.8331 27.4348C 52.8331 30.6431 50.3231 33.7336 47.3963 34.8604C 45.6293 35.5401 43.9197 36.3588 42.2796 37.3104C 40.6667 38.2469 39.1172 39.3194 37.6402 40.5248C 35.2238 42.4944 31.2881 43.1017 28.5123 41.4975L 14.0111 33.1264C 11.2353 31.5222 6.70458 30.8395 3.89555 31.6008C 1.08652 32.3621 -0.57474 35.2531 0.183396 38.0627C 0.941533 40.8722 3.80795 44.452 6.58376 46.0562L 21.0548 54.4213C 23.8306 56.0255 25.2381 59.8047 24.7458 62.9707C 24.1719 66.6533 24.1719 70.3449 24.7458 74.0426C 25.2412 77.2116 23.8246 80.9879 21.0488 82.595L 6.5747 90.9602C 3.79889 92.5643 0.935492 96.1472 0.183396 98.9627C -0.57172 101.778 1.09558 104.669 3.90763 105.422C 6.71968 106.174 11.2474 105.485 14.0262 103.881L 28.5214 95.5098C 31.2972 93.9056 35.2782 94.5702 37.7731 96.5822C 40.6697 98.9114 43.8563 100.76 47.3238 102.108C 50.311 103.271 52.8754 106.388 52.8754 109.597L 52.8754 125.789C 52.8784 128.991 54.5789 133.287 56.6782 135.39C 58.7774 137.486 62.1331 137.544 64.178 135.514C 66.2228 133.484 67.878 129.239 67.878 126.034L 67.878 109.575C 67.878 106.367 70.4454 103.253 73.4297 102.086C 76.879 100.748 80.0505 98.9054 82.9411 96.5822C 85.439 94.5702 89.417 93.9056 92.1958 95.5128C 97.7565 98.7211 102.915 103.183 109.174 105.005C 112.514 105.971 119.884 107.05 121.6 102.781C 122.76 99.8962 121.241 97.0505 119.054 94.7666ZM 60.3692 89.6098C 48.6528 89.5765 39.1836 80.0876 39.1987 68.4598C 39.2169 56.8441 48.6981 47.3975 60.339 47.3975C 72.0553 47.4277 81.5245 56.9136 81.5064 68.5444C 81.4852 80.1541 72.004 89.6098 60.3692 89.6098ZM 73.5293 68.339C 73.5656 71.8675 72.2245 75.1936 69.7628 77.7041C 67.2951 80.2205 63.9756 81.6223 60.4296 81.6465L 60.3269 81.6465C 53.1412 81.6465 47.2362 75.819 47.1697 68.6592C 47.1335 65.1217 48.4716 61.7925 50.9332 59.2911C 53.401 56.7777 56.7144 55.385 60.2665 55.3548L 60.3692 55.3548C 67.5548 55.3548 73.4568 61.1762 73.5293 68.339Z"/>
<path id="path1_fill" d="M 8.4 143L 35.25 143L 35.25 111.95L 51 111.95C 76.65 111.95 89.7 93.2 89.7 74.3C 89.7 55.55 76.8 36.8 50.85 36.8L 8.4 36.8L 8.4 143ZM 35.25 88.1L 35.25 61.85L 50.85 61.85C 67.05 61.7 67.05 88.25 50.85 88.1L 35.25 88.1ZM 135.66 59.9L 125.16 36.8L 94.7098 36.8L 129.66 108.65L 114.06 143L 143.01 143L 191.01 36.8L 161.16 36.8L 151.56 58.4L 143.61 79.1L 142.86 79.1L 135.66 59.9ZM 285.901 108.35C 285.901 87.2 276.751 75.8 247.201 75.8L 231.601 75.8L 231.601 59.3L 277.201 59.3L 277.201 36.8L 204.601 36.8L 204.601 143L 247.951 143C 271.501 143 285.901 129.5 285.901 108.35ZM 231.601 119.45L 231.601 95.3L 247.051 95.3C 255.301 95.3 259.351 99.5 259.351 107C 259.351 114.5 256.351 119.45 247.201 119.45L 231.601 119.45ZM 331.533 76.1L 331.533 36.8L 304.533 36.8L 304.533 143L 331.533 143L 331.533 106.25L 332.433 105.05L 359.883 143L 393.633 143L 351.783 89L 393.783 36.8L 360.333 36.8L 331.533 76.1ZM 460.18 36.8L 435.73 36.8L 398.68 143L 427.48 143L 434.08 121.7L 462.43 121.7L 469.33 143L 498.13 143L 460.18 36.8ZM 440.08 97.85L 447.88 66.8L 448.63 66.8L 455.98 97.85L 440.08 97.85Z"/>
</defs>
</svg>
